<svg xmlns="http://www.w3.org/2000/svg" width="290" height="310" stroke="#000" stroke-linecap="round" stroke-linejoin="round" fill="#fff" fill-rule="evenodd"><g stroke="none"><path d="M212.53 202.256l-41.464-7.086-14.255-39.166 41.464 7.086 14.255 39.166" fill="#ffe082"/><path d="M145.312 171.557l41.473 7.082-27.218 32.084-41.464-7.086 27.209-32.081" fill="#ffd54f"/><path d="M186.777 178.646l14.255 39.166-27.209 32.081-14.255-39.166 27.209-32.081" fill="#ffc107"/><path d="M173.83 249.896l-41.464-7.086-14.255-39.166 41.464 7.086 14.255 39.166" fill="#ffecb3"/><path d="M101.862 222.167l41.473 7.082-27.218 32.084-41.464-7.086 27.209-32.081" fill="#ffca28"/><path d="M143.327 229.256l14.255 39.166-27.209 32.081-14.255-39.166 27.209-32.081" fill="#ffa000"/><path d="M130.37 300.506l-41.464-7.086-14.255-39.166 41.464 7.086 14.255 39.166" fill="#ffe082"/><path d="M80.472 160.437l41.473 7.082-27.218 32.084-41.464-7.086 27.209-32.081" fill="#ffca28"/><path d="M121.937 167.526l14.255 39.166-27.209 32.081-14.255-39.167 27.209-32.081" fill="#ffb300"/><path d="M108.99 238.776l-41.464-7.086-14.255-39.166 41.464 7.086 14.255 39.166" fill="#ffecb3"/><path d="M59.092 101.687l41.473 7.082-27.218 32.084-41.464-7.086 27.209-32.081" fill="#ffca28"/><path d="M100.557 108.776l14.255 39.166-27.209 32.081-14.255-39.167 27.209-32.081" fill="#ffc107"/><path d="M87.6 180.026l-41.464-7.086-14.255-39.166 41.464 7.086L87.6 180.026" fill="#ffecb3"/><path d="M37.712 42.937l41.473 7.082-27.218 32.084-41.464-7.086 27.209-32.081" fill="#ffc107"/><path d="M79.177 50.026l14.255 39.166-27.209 32.081-14.255-39.166 27.209-32.081" fill="#ffa000"/><path d="M66.22 121.276l-41.464-7.086L10.5 75.024l41.464 7.086 14.255 39.166" fill="#ffe082"/><path d="M98.182 50.417l41.473 7.082-27.218 32.084-41.464-7.086 27.209-32.081" fill="#ffca28"/><path d="M139.657 57.507l14.255 39.166-27.209 32.081-14.255-39.166 27.209-32.081" fill="#ffb300"/><path d="M126.7 128.756l-41.464-7.086L70.98 82.504l41.464 7.086 14.255 39.166" fill="#ffecb3"/><path d="M160.802 58.687l41.473 7.082-27.218 32.084-41.464-7.086 27.209-32.081" fill="#ffca28"/><path d="M202.267 65.776l14.255 39.166-27.209 32.081-14.255-39.166 27.209-32.081" fill="#ffc107"/><path d="M189.32 137.026l-41.464-7.086L133.6 90.774l41.464 7.086 14.255 39.166" fill="#ffe082"/><path d="M225.692 73.177l41.473 7.082-27.218 32.084-41.464-7.086 27.209-32.081" fill="#ffd54f"/><path d="M267.167 80.266l14.255 39.166-27.209 32.081-14.255-39.166 27.209-32.081" fill="#ffa000"/><path d="M254.21 151.506l-41.464-7.086-14.255-39.166 41.464 7.086 14.255 39.166" fill="#ffe082"/><path d="M184.012 123.917l41.473 7.082-27.218 32.084-41.464-7.086 27.209-32.081" fill="#ffd54f"/><path d="M225.487 131.006l14.255 39.167-27.209 32.081-14.255-39.166 27.209-32.081" fill="#ffb300"/></g></svg>